<mxfile host="Electron" agent="Mozilla/5.0 (Windows NT 10.0; Win64; x64) AppleWebKit/537.36 (KHTML, like Gecko) draw.io/24.7.17 Chrome/128.0.6613.36 Electron/32.0.1 Safari/537.36" version="24.7.17">
  <diagram name="Page-1" id="2xnVwQR67rYMp14j1e9M">
    <mxGraphModel dx="351" dy="776" grid="0" gridSize="10" guides="1" tooltips="1" connect="1" arrows="1" fold="1" page="1" pageScale="1" pageWidth="850" pageHeight="1100" math="0" shadow="0">
      <root>
        <mxCell id="0" />
        <mxCell id="1" parent="0" />
        <mxCell id="3BCmt4OOjZknDp-u8oum-1" value="class sales staff" style="text;html=1;align=center;verticalAlign=middle;whiteSpace=wrap;rounded=0;" vertex="1" parent="1">
          <mxGeometry x="29" y="26" width="143" height="30" as="geometry" />
        </mxCell>
        <mxCell id="3BCmt4OOjZknDp-u8oum-16" style="edgeStyle=orthogonalEdgeStyle;rounded=0;orthogonalLoop=1;jettySize=auto;html=1;" edge="1" parent="1" source="3BCmt4OOjZknDp-u8oum-2" target="3BCmt4OOjZknDp-u8oum-5">
          <mxGeometry relative="1" as="geometry" />
        </mxCell>
        <mxCell id="3BCmt4OOjZknDp-u8oum-2" value="no order&lt;div&gt;&lt;br&gt;&lt;/div&gt;" style="rounded=1;whiteSpace=wrap;html=1;" vertex="1" parent="1">
          <mxGeometry x="315" y="62" width="113" height="51" as="geometry" />
        </mxCell>
        <mxCell id="3BCmt4OOjZknDp-u8oum-3" value="" style="endArrow=none;html=1;rounded=0;entryX=1;entryY=0.5;entryDx=0;entryDy=0;exitX=0;exitY=0.5;exitDx=0;exitDy=0;" edge="1" parent="1" source="3BCmt4OOjZknDp-u8oum-2" target="3BCmt4OOjZknDp-u8oum-2">
          <mxGeometry width="50" height="50" relative="1" as="geometry">
            <mxPoint x="346.5" y="124" as="sourcePoint" />
            <mxPoint x="396.5" y="74" as="targetPoint" />
          </mxGeometry>
        </mxCell>
        <mxCell id="3BCmt4OOjZknDp-u8oum-15" style="edgeStyle=orthogonalEdgeStyle;rounded=0;orthogonalLoop=1;jettySize=auto;html=1;entryX=0;entryY=0.5;entryDx=0;entryDy=0;" edge="1" parent="1" source="3BCmt4OOjZknDp-u8oum-4" target="3BCmt4OOjZknDp-u8oum-2">
          <mxGeometry relative="1" as="geometry" />
        </mxCell>
        <mxCell id="3BCmt4OOjZknDp-u8oum-4" value="" style="ellipse;fillColor=strokeColor;html=1;" vertex="1" parent="1">
          <mxGeometry x="195" y="73" width="30" height="30" as="geometry" />
        </mxCell>
        <mxCell id="3BCmt4OOjZknDp-u8oum-18" style="edgeStyle=orthogonalEdgeStyle;rounded=0;orthogonalLoop=1;jettySize=auto;html=1;entryX=0.5;entryY=0;entryDx=0;entryDy=0;" edge="1" parent="1" source="3BCmt4OOjZknDp-u8oum-5" target="3BCmt4OOjZknDp-u8oum-7">
          <mxGeometry relative="1" as="geometry" />
        </mxCell>
        <mxCell id="3BCmt4OOjZknDp-u8oum-5" value="&lt;div&gt;create order&lt;/div&gt;&lt;div&gt;&lt;br&gt;&lt;/div&gt;" style="rounded=1;whiteSpace=wrap;html=1;" vertex="1" parent="1">
          <mxGeometry x="315" y="156" width="113" height="51" as="geometry" />
        </mxCell>
        <mxCell id="3BCmt4OOjZknDp-u8oum-6" value="" style="endArrow=none;html=1;rounded=0;entryX=1;entryY=0.5;entryDx=0;entryDy=0;exitX=0;exitY=0.5;exitDx=0;exitDy=0;" edge="1" parent="1" source="3BCmt4OOjZknDp-u8oum-5" target="3BCmt4OOjZknDp-u8oum-5">
          <mxGeometry width="50" height="50" relative="1" as="geometry">
            <mxPoint x="346.5" y="218" as="sourcePoint" />
            <mxPoint x="396.5" y="168" as="targetPoint" />
          </mxGeometry>
        </mxCell>
        <mxCell id="3BCmt4OOjZknDp-u8oum-19" style="edgeStyle=orthogonalEdgeStyle;rounded=0;orthogonalLoop=1;jettySize=auto;html=1;entryX=0.5;entryY=0;entryDx=0;entryDy=0;" edge="1" parent="1" source="3BCmt4OOjZknDp-u8oum-7" target="3BCmt4OOjZknDp-u8oum-9">
          <mxGeometry relative="1" as="geometry" />
        </mxCell>
        <mxCell id="3BCmt4OOjZknDp-u8oum-7" value="&lt;div&gt;order processing&lt;/div&gt;&lt;div&gt;&lt;br&gt;&lt;/div&gt;" style="rounded=1;whiteSpace=wrap;html=1;" vertex="1" parent="1">
          <mxGeometry x="315" y="260" width="113" height="51" as="geometry" />
        </mxCell>
        <mxCell id="3BCmt4OOjZknDp-u8oum-8" value="" style="endArrow=none;html=1;rounded=0;entryX=1;entryY=0.5;entryDx=0;entryDy=0;exitX=0;exitY=0.5;exitDx=0;exitDy=0;" edge="1" parent="1" source="3BCmt4OOjZknDp-u8oum-7" target="3BCmt4OOjZknDp-u8oum-7">
          <mxGeometry width="50" height="50" relative="1" as="geometry">
            <mxPoint x="350.5" y="319" as="sourcePoint" />
            <mxPoint x="400.5" y="269" as="targetPoint" />
          </mxGeometry>
        </mxCell>
        <mxCell id="3BCmt4OOjZknDp-u8oum-20" style="edgeStyle=orthogonalEdgeStyle;rounded=0;orthogonalLoop=1;jettySize=auto;html=1;entryX=0.5;entryY=0;entryDx=0;entryDy=0;" edge="1" parent="1" source="3BCmt4OOjZknDp-u8oum-9" target="3BCmt4OOjZknDp-u8oum-13">
          <mxGeometry relative="1" as="geometry" />
        </mxCell>
        <mxCell id="3BCmt4OOjZknDp-u8oum-22" style="edgeStyle=orthogonalEdgeStyle;rounded=0;orthogonalLoop=1;jettySize=auto;html=1;exitX=0.5;exitY=1;exitDx=0;exitDy=0;" edge="1" parent="1" source="3BCmt4OOjZknDp-u8oum-9" target="3BCmt4OOjZknDp-u8oum-11">
          <mxGeometry relative="1" as="geometry">
            <mxPoint x="371.5" y="442.39996337890625" as="targetPoint" />
          </mxGeometry>
        </mxCell>
        <mxCell id="3BCmt4OOjZknDp-u8oum-9" value="&lt;div&gt;order completed&lt;/div&gt;&lt;div&gt;&lt;br&gt;&lt;/div&gt;" style="rounded=1;whiteSpace=wrap;html=1;" vertex="1" parent="1">
          <mxGeometry x="315" y="348" width="113" height="51" as="geometry" />
        </mxCell>
        <mxCell id="3BCmt4OOjZknDp-u8oum-10" value="" style="endArrow=none;html=1;rounded=0;entryX=1;entryY=0.5;entryDx=0;entryDy=0;exitX=0;exitY=0.5;exitDx=0;exitDy=0;" edge="1" parent="1" source="3BCmt4OOjZknDp-u8oum-9" target="3BCmt4OOjZknDp-u8oum-9">
          <mxGeometry width="50" height="50" relative="1" as="geometry">
            <mxPoint x="376.5" y="154" as="sourcePoint" />
            <mxPoint x="426.5" y="104" as="targetPoint" />
          </mxGeometry>
        </mxCell>
        <mxCell id="3BCmt4OOjZknDp-u8oum-21" style="edgeStyle=orthogonalEdgeStyle;rounded=0;orthogonalLoop=1;jettySize=auto;html=1;entryX=0.5;entryY=1;entryDx=0;entryDy=0;" edge="1" parent="1" source="3BCmt4OOjZknDp-u8oum-11" target="3BCmt4OOjZknDp-u8oum-13">
          <mxGeometry relative="1" as="geometry" />
        </mxCell>
        <mxCell id="3BCmt4OOjZknDp-u8oum-11" value="&lt;div&gt;cancel order&lt;/div&gt;&lt;div&gt;&lt;br&gt;&lt;/div&gt;" style="rounded=1;whiteSpace=wrap;html=1;" vertex="1" parent="1">
          <mxGeometry x="315" y="481" width="113" height="51" as="geometry" />
        </mxCell>
        <mxCell id="3BCmt4OOjZknDp-u8oum-12" value="" style="endArrow=none;html=1;rounded=0;entryX=1;entryY=0.5;entryDx=0;entryDy=0;exitX=0;exitY=0.5;exitDx=0;exitDy=0;" edge="1" parent="1" source="3BCmt4OOjZknDp-u8oum-11" target="3BCmt4OOjZknDp-u8oum-11">
          <mxGeometry width="50" height="50" relative="1" as="geometry">
            <mxPoint x="386.5" y="164" as="sourcePoint" />
            <mxPoint x="436.5" y="114" as="targetPoint" />
          </mxGeometry>
        </mxCell>
        <mxCell id="3BCmt4OOjZknDp-u8oum-13" value="" style="ellipse;html=1;shape=endState;fillColor=strokeColor;" vertex="1" parent="1">
          <mxGeometry x="217" y="456" width="30" height="30" as="geometry" />
        </mxCell>
        <mxCell id="3BCmt4OOjZknDp-u8oum-23" value="" style="ellipse;html=1;shape=endState;fillColor=strokeColor;" vertex="1" parent="1">
          <mxGeometry x="478" y="971.5" width="30" height="30" as="geometry" />
        </mxCell>
        <mxCell id="3BCmt4OOjZknDp-u8oum-33" style="edgeStyle=orthogonalEdgeStyle;rounded=0;orthogonalLoop=1;jettySize=auto;html=1;" edge="1" parent="1" source="3BCmt4OOjZknDp-u8oum-24">
          <mxGeometry relative="1" as="geometry">
            <mxPoint x="289" y="754.5" as="targetPoint" />
          </mxGeometry>
        </mxCell>
        <mxCell id="3BCmt4OOjZknDp-u8oum-24" value="" style="ellipse;fillColor=strokeColor;html=1;" vertex="1" parent="1">
          <mxGeometry x="162" y="739.5" width="30" height="30" as="geometry" />
        </mxCell>
        <mxCell id="3BCmt4OOjZknDp-u8oum-34" style="edgeStyle=orthogonalEdgeStyle;rounded=0;orthogonalLoop=1;jettySize=auto;html=1;entryX=0.5;entryY=0;entryDx=0;entryDy=0;" edge="1" parent="1" source="3BCmt4OOjZknDp-u8oum-25" target="3BCmt4OOjZknDp-u8oum-27">
          <mxGeometry relative="1" as="geometry" />
        </mxCell>
        <mxCell id="3BCmt4OOjZknDp-u8oum-25" value="&lt;div&gt;viewing inventory&lt;/div&gt;&lt;div&gt;&lt;br&gt;&lt;/div&gt;" style="rounded=1;whiteSpace=wrap;html=1;" vertex="1" parent="1">
          <mxGeometry x="287" y="729" width="113" height="51" as="geometry" />
        </mxCell>
        <mxCell id="3BCmt4OOjZknDp-u8oum-26" value="" style="endArrow=none;html=1;rounded=0;entryX=1;entryY=0.5;entryDx=0;entryDy=0;exitX=0;exitY=0.5;exitDx=0;exitDy=0;" edge="1" parent="1" source="3BCmt4OOjZknDp-u8oum-25" target="3BCmt4OOjZknDp-u8oum-25">
          <mxGeometry width="50" height="50" relative="1" as="geometry">
            <mxPoint x="358.5" y="412" as="sourcePoint" />
            <mxPoint x="408.5" y="362" as="targetPoint" />
          </mxGeometry>
        </mxCell>
        <mxCell id="3BCmt4OOjZknDp-u8oum-35" style="edgeStyle=orthogonalEdgeStyle;rounded=0;orthogonalLoop=1;jettySize=auto;html=1;entryX=0.5;entryY=0;entryDx=0;entryDy=0;" edge="1" parent="1" source="3BCmt4OOjZknDp-u8oum-27" target="3BCmt4OOjZknDp-u8oum-29">
          <mxGeometry relative="1" as="geometry" />
        </mxCell>
        <mxCell id="3BCmt4OOjZknDp-u8oum-27" value="&lt;div&gt;view sales report&lt;/div&gt;&lt;div&gt;&lt;br&gt;&lt;/div&gt;" style="rounded=1;whiteSpace=wrap;html=1;" vertex="1" parent="1">
          <mxGeometry x="287" y="839" width="113" height="51" as="geometry" />
        </mxCell>
        <mxCell id="3BCmt4OOjZknDp-u8oum-28" value="" style="endArrow=none;html=1;rounded=0;entryX=1;entryY=0.5;entryDx=0;entryDy=0;exitX=0;exitY=0.5;exitDx=0;exitDy=0;" edge="1" parent="1" source="3BCmt4OOjZknDp-u8oum-27" target="3BCmt4OOjZknDp-u8oum-27">
          <mxGeometry width="50" height="50" relative="1" as="geometry">
            <mxPoint x="368.5" y="422" as="sourcePoint" />
            <mxPoint x="418.5" y="372" as="targetPoint" />
          </mxGeometry>
        </mxCell>
        <mxCell id="3BCmt4OOjZknDp-u8oum-36" style="edgeStyle=orthogonalEdgeStyle;rounded=0;orthogonalLoop=1;jettySize=auto;html=1;entryX=0;entryY=0.5;entryDx=0;entryDy=0;" edge="1" parent="1" source="3BCmt4OOjZknDp-u8oum-29" target="3BCmt4OOjZknDp-u8oum-23">
          <mxGeometry relative="1" as="geometry" />
        </mxCell>
        <mxCell id="3BCmt4OOjZknDp-u8oum-29" value="&lt;div&gt;creating finnacial report&lt;/div&gt;&lt;div&gt;&lt;br&gt;&lt;/div&gt;" style="rounded=1;whiteSpace=wrap;html=1;" vertex="1" parent="1">
          <mxGeometry x="275.5" y="961" width="136" height="51" as="geometry" />
        </mxCell>
        <mxCell id="3BCmt4OOjZknDp-u8oum-30" value="" style="endArrow=none;html=1;rounded=0;entryX=1;entryY=0.5;entryDx=0;entryDy=0;exitX=0;exitY=0.5;exitDx=0;exitDy=0;" edge="1" parent="1" source="3BCmt4OOjZknDp-u8oum-29" target="3BCmt4OOjZknDp-u8oum-29">
          <mxGeometry width="50" height="50" relative="1" as="geometry">
            <mxPoint x="378.5" y="432" as="sourcePoint" />
            <mxPoint x="428.5" y="382" as="targetPoint" />
          </mxGeometry>
        </mxCell>
      </root>
    </mxGraphModel>
  </diagram>
</mxfile>
